<svg xmlns="http://www.w3.org/2000/svg" xmlns:xlink="http://www.w3.org/1999/xlink" width="100" zoomAndPan="magnify" viewBox="0 0 75 74.999997" height="100" preserveAspectRatio="xMidYMid meet" version="1.0"><defs><clipPath id="746a750f6a"><path d="M 4 7.5 L 75 7.5 L 75 64 L 4 64 Z M 4 7.5 " clip-rule="nonzero"/></clipPath><clipPath id="7431c1c7d6"><path d="M 3 7.5 L 75 7.5 L 75 64 L 3 64 Z M 3 7.5 " clip-rule="nonzero"/></clipPath><clipPath id="849b7c54ff"><path d="M 3 7.5 L 75 7.5 L 75 64 L 3 64 Z M 3 7.5 " clip-rule="nonzero"/></clipPath><clipPath id="9c6a3c6369"><path d="M 25 59 L 40 59 L 40 69.75 L 25 69.75 Z M 25 59 " clip-rule="nonzero"/></clipPath></defs><path fill="#badcee" d="M 21.054688 14.835938 C 19.773438 12.648438 17.640625 10.703125 14.796875 8.953125 C 14.628906 8.851562 14.449219 8.785156 14.253906 8.757812 C 14.058594 8.726562 13.867188 8.738281 13.679688 8.792969 C 13.488281 8.84375 13.320312 8.929688 13.164062 9.054688 C 13.011719 9.175781 12.890625 9.324219 12.800781 9.496094 C 10.910156 13.1875 10.667969 16.964844 11.3125 20.792969 " fill-opacity="1" fill-rule="nonzero"/><path fill="#112c41" d="M 11.3125 21.03125 C 11.179688 21.03125 11.101562 20.964844 11.082031 20.832031 C 10.355469 16.53125 10.847656 12.789062 12.589844 9.390625 C 12.804688 8.96875 13.140625 8.691406 13.601562 8.566406 C 14.066406 8.4375 14.507812 8.5 14.921875 8.753906 C 17.867188 10.566406 20 12.574219 21.261719 14.714844 C 21.339844 14.851562 21.3125 14.957031 21.175781 15.039062 C 21.039062 15.117188 20.929688 15.089844 20.851562 14.953125 C 19.632812 12.878906 17.554688 10.925781 14.671875 9.15625 C 14.378906 8.972656 14.0625 8.929688 13.730469 9.023438 C 13.402344 9.109375 13.164062 9.304688 13.011719 9.605469 C 11.320312 12.910156 10.839844 16.558594 11.550781 20.753906 C 11.574219 20.910156 11.511719 21 11.355469 21.027344 C 11.339844 21.03125 11.328125 21.03125 11.3125 21.03125 Z M 11.3125 21.03125 " fill-opacity="1" fill-rule="nonzero"/><path fill="#6ecfea" d="M 12.226562 52.1875 C 12.226562 52.1875 12.488281 62.421875 17.355469 62.90625 C 22.011719 63.367188 24.5 53.402344 24.5 53.402344 " fill-opacity="1" fill-rule="nonzero"/><path fill="#112c41" d="M 17.675781 63.15625 C 17.5625 63.15625 17.445312 63.152344 17.332031 63.140625 C 15.234375 62.933594 13.644531 60.957031 12.734375 57.421875 C 12.3125 55.703125 12.0625 53.960938 11.988281 52.191406 C 11.984375 52.035156 12.0625 51.953125 12.21875 51.949219 C 12.285156 51.945312 12.34375 51.96875 12.390625 52.011719 C 12.4375 52.058594 12.460938 52.113281 12.460938 52.179688 C 12.464844 52.28125 12.773438 62.214844 17.378906 62.671875 C 21.78125 63.105469 24.246094 53.441406 24.269531 53.34375 C 24.308594 53.191406 24.402344 53.132812 24.558594 53.171875 C 24.710938 53.210938 24.769531 53.304688 24.730469 53.457031 C 24.269531 55.175781 23.65625 56.832031 22.886719 58.429688 C 21.332031 61.570312 19.582031 63.15625 17.675781 63.15625 Z M 17.675781 63.15625 " fill-opacity="1" fill-rule="nonzero"/><g clip-path="url(#746a750f6a)"><path fill="#badcee" d="M 74.757812 35.683594 C 74.757812 51.085938 58.941406 63.570312 39.4375 63.570312 C 38.308594 63.570312 37.195312 63.527344 36.09375 63.445312 C 18.15625 62.117188 4.117188 50.195312 4.117188 35.683594 C 4.117188 20.28125 19.929688 7.796875 39.4375 7.796875 C 53.957031 7.796875 66.433594 14.714844 71.863281 24.609375 C 73.777344 28.054688 74.742188 31.746094 74.757812 35.683594 Z M 74.757812 35.683594 " fill-opacity="1" fill-rule="nonzero"/></g><g clip-path="url(#7431c1c7d6)"><path fill="#112c41" d="M 39.4375 63.804688 C 38.316406 63.804688 37.183594 63.765625 36.074219 63.679688 C 27.3125 63.03125 19.199219 59.835938 13.222656 54.6875 C 7.199219 49.488281 3.882812 42.742188 3.882812 35.683594 C 3.882812 20.175781 19.832031 7.558594 39.4375 7.558594 C 53.617188 7.558594 66.425781 14.207031 72.070312 24.496094 C 74.011719 27.972656 74.984375 31.703125 74.992188 35.683594 C 74.992188 51.191406 59.042969 63.804688 39.4375 63.804688 Z M 39.4375 8.03125 C 20.09375 8.03125 4.355469 20.4375 4.355469 35.683594 C 4.355469 42.601562 7.613281 49.226562 13.535156 54.328125 C 19.429688 59.414062 27.449219 62.570312 36.109375 63.210938 C 37.210938 63.292969 38.328125 63.335938 39.4375 63.335938 C 58.78125 63.335938 74.519531 50.929688 74.519531 35.683594 C 74.511719 31.785156 73.554688 28.132812 71.652344 24.722656 C 66.089844 14.582031 53.445312 8.03125 39.4375 8.03125 Z M 39.4375 8.03125 " fill-opacity="1" fill-rule="nonzero"/></g><path fill="#6ecfea" d="M 74.757812 35.683594 C 74.757812 51.085938 58.941406 63.570312 39.4375 63.570312 C 38.308594 63.570312 37.195312 63.527344 36.09375 63.445312 C 36.394531 62.007812 36.878906 60.628906 37.539062 59.316406 C 37.539062 59.316406 44.652344 59.789062 51.050781 57.660156 C 57.453125 55.535156 63.617188 50.335938 68.121094 42.773438 C 71.851562 36.511719 71.839844 27.8125 71.863281 24.609375 C 73.777344 28.054688 74.742188 31.746094 74.757812 35.683594 Z M 74.757812 35.683594 " fill-opacity="1" fill-rule="nonzero"/><path fill="#badcee" d="M 11.832031 38.867188 C 11.4375 40.050781 10.804688 41.09375 9.933594 41.988281 C 9.382812 42.550781 8.714844 42.78125 7.929688 42.679688 L 3.253906 42.058594 L 5.007812 28.914062 L 9.375 29.492188 C 9.804688 29.550781 10.191406 29.710938 10.535156 29.96875 C 10.878906 30.230469 11.136719 30.558594 11.304688 30.957031 C 11.480469 31.347656 11.625 31.753906 11.738281 32.167969 " fill-opacity="1" fill-rule="nonzero"/><path fill="#112c41" d="M 8.234375 42.9375 C 8.121094 42.9375 8.011719 42.929688 7.898438 42.914062 L 3.222656 42.292969 C 3.066406 42.273438 3 42.183594 3.019531 42.027344 L 4.773438 28.882812 C 4.792969 28.726562 4.882812 28.660156 5.039062 28.679688 L 9.40625 29.257812 C 9.875 29.320312 10.300781 29.496094 10.675781 29.78125 C 11.054688 30.066406 11.335938 30.429688 11.523438 30.863281 C 11.703125 31.265625 11.851562 31.683594 11.96875 32.109375 C 11.988281 32.171875 11.980469 32.234375 11.945312 32.292969 C 11.914062 32.347656 11.863281 32.386719 11.796875 32.402344 C 11.734375 32.417969 11.671875 32.410156 11.617188 32.375 C 11.558594 32.339844 11.523438 32.289062 11.507812 32.226562 C 11.398438 31.820312 11.257812 31.429688 11.085938 31.046875 C 10.933594 30.691406 10.699219 30.394531 10.390625 30.160156 C 10.078125 29.921875 9.730469 29.78125 9.34375 29.726562 L 5.210938 29.179688 L 3.519531 41.855469 L 7.960938 42.445312 C 8.667969 42.535156 9.269531 42.328125 9.765625 41.824219 C 10.609375 40.949219 11.222656 39.941406 11.605469 38.792969 C 11.660156 38.644531 11.757812 38.597656 11.90625 38.648438 C 12.054688 38.699219 12.105469 38.796875 12.054688 38.945312 C 11.648438 40.160156 10.996094 41.230469 10.105469 42.152344 C 9.589844 42.675781 8.96875 42.933594 8.234375 42.9375 Z M 8.234375 42.9375 " fill-opacity="1" fill-rule="nonzero"/><g clip-path="url(#849b7c54ff)"><path fill="#112c41" d="M 39.371094 63.769531 C 38.25 63.769531 37.117188 63.726562 36.007812 63.644531 C 27.246094 62.996094 19.128906 59.800781 13.15625 54.648438 C 7.132812 49.453125 3.8125 42.707031 3.8125 35.648438 C 3.8125 20.140625 19.765625 7.523438 39.371094 7.523438 C 53.546875 7.523438 66.359375 14.171875 72.003906 24.460938 C 73.941406 27.9375 74.917969 31.667969 74.925781 35.648438 C 74.925781 51.15625 58.976562 63.769531 39.371094 63.769531 Z M 39.371094 7.996094 C 20.027344 7.996094 4.289062 20.402344 4.289062 35.648438 C 4.289062 42.566406 7.546875 49.1875 13.46875 54.292969 C 19.363281 59.378906 27.382812 62.53125 36.042969 63.175781 C 37.140625 63.257812 38.261719 63.296875 39.371094 63.296875 C 58.714844 63.296875 74.453125 50.894531 74.453125 35.648438 C 74.445312 31.75 73.488281 28.09375 71.585938 24.6875 C 66.023438 14.546875 53.378906 7.996094 39.371094 7.996094 Z M 39.371094 7.996094 " fill-opacity="1" fill-rule="nonzero"/></g><path fill="#badcee" d="M 5.363281 28.917969 C 5.601562 28.949219 5.828125 29.023438 6.046875 29.140625 C 6.265625 29.253906 6.472656 29.410156 6.667969 29.605469 C 6.863281 29.800781 7.042969 30.035156 7.207031 30.300781 C 7.371094 30.570312 7.515625 30.871094 7.640625 31.199219 C 7.765625 31.53125 7.871094 31.886719 7.953125 32.265625 C 8.035156 32.644531 8.09375 33.042969 8.132812 33.457031 C 8.167969 33.871094 8.179688 34.296875 8.167969 34.730469 C 8.160156 35.164062 8.125 35.597656 8.066406 36.035156 C 8.007812 36.472656 7.925781 36.898438 7.824219 37.320312 C 7.71875 37.742188 7.597656 38.148438 7.453125 38.539062 C 7.308594 38.929688 7.148438 39.296875 6.96875 39.644531 C 6.789062 39.988281 6.597656 40.304688 6.386719 40.589844 C 6.179688 40.878906 5.960938 41.128906 5.734375 41.34375 C 5.507812 41.5625 5.273438 41.738281 5.03125 41.875 C 4.792969 42.015625 4.550781 42.109375 4.308594 42.164062 C 4.066406 42.21875 3.828125 42.230469 3.59375 42.199219 C 3.355469 42.167969 3.128906 42.09375 2.910156 41.980469 C 2.691406 41.863281 2.480469 41.707031 2.285156 41.511719 C 2.089844 41.316406 1.910156 41.085938 1.75 40.816406 C 1.585938 40.546875 1.441406 40.25 1.316406 39.917969 C 1.191406 39.585938 1.085938 39.234375 1.003906 38.851562 C 0.921875 38.472656 0.859375 38.074219 0.824219 37.660156 C 0.789062 37.246094 0.777344 36.820312 0.785156 36.386719 C 0.796875 35.953125 0.832031 35.519531 0.890625 35.082031 C 0.949219 34.648438 1.03125 34.21875 1.132812 33.796875 C 1.234375 33.375 1.359375 32.96875 1.503906 32.578125 C 1.648438 32.1875 1.808594 31.820312 1.988281 31.472656 C 2.167969 31.128906 2.359375 30.8125 2.566406 30.527344 C 2.777344 30.242188 2.992188 29.988281 3.222656 29.773438 C 3.449219 29.558594 3.683594 29.378906 3.925781 29.242188 C 4.164062 29.105469 4.40625 29.007812 4.648438 28.953125 C 4.890625 28.898438 5.128906 28.886719 5.363281 28.917969 Z M 5.363281 28.917969 " fill-opacity="1" fill-rule="nonzero"/><path fill="#112c41" d="M 3.855469 42.453125 C 3.757812 42.453125 3.660156 42.445312 3.5625 42.433594 C 2.511719 42.296875 1.636719 41.429688 1.09375 40.003906 C 0.570312 38.621094 0.414062 36.863281 0.65625 35.050781 C 1.171875 31.199219 3.25 28.402344 5.398438 28.683594 C 6.445312 28.824219 7.320312 29.6875 7.863281 31.117188 C 8.386719 32.496094 8.542969 34.253906 8.300781 36.066406 C 8.058594 37.878906 7.449219 39.535156 6.582031 40.730469 C 5.765625 41.851562 4.808594 42.453125 3.855469 42.453125 Z M 5.097656 29.136719 C 3.324219 29.136719 1.578125 31.734375 1.125 35.113281 C 0.894531 36.851562 1.039062 38.527344 1.535156 39.835938 C 2.015625 41.09375 2.753906 41.851562 3.621094 41.964844 C 4.488281 42.082031 5.40625 41.542969 6.195312 40.453125 C 7.019531 39.320312 7.597656 37.738281 7.832031 36.003906 C 8.0625 34.269531 7.917969 32.59375 7.417969 31.285156 C 6.941406 30.023438 6.199219 29.269531 5.332031 29.152344 C 5.253906 29.144531 5.175781 29.136719 5.097656 29.136719 Z M 5.097656 29.136719 " fill-opacity="1" fill-rule="nonzero"/><path fill="#112c41" d="M 20.148438 24.523438 C 20.355469 24.582031 20.539062 24.691406 20.699219 24.851562 C 20.863281 25.007812 20.988281 25.207031 21.078125 25.441406 C 21.167969 25.675781 21.21875 25.933594 21.226562 26.207031 C 21.234375 26.484375 21.195312 26.757812 21.121094 27.035156 C 21.042969 27.308594 20.925781 27.5625 20.777344 27.792969 C 20.625 28.023438 20.449219 28.214844 20.246094 28.371094 C 20.046875 28.523438 19.835938 28.625 19.613281 28.675781 C 19.394531 28.726562 19.179688 28.722656 18.972656 28.664062 C 18.769531 28.605469 18.585938 28.5 18.421875 28.339844 C 18.261719 28.179688 18.136719 27.984375 18.046875 27.746094 C 17.953125 27.511719 17.90625 27.257812 17.898438 26.980469 C 17.890625 26.707031 17.925781 26.429688 18.003906 26.15625 C 18.082031 25.882812 18.195312 25.628906 18.347656 25.398438 C 18.5 25.164062 18.675781 24.972656 18.875 24.820312 C 19.078125 24.667969 19.289062 24.566406 19.507812 24.515625 C 19.730469 24.460938 19.941406 24.464844 20.148438 24.523438 Z M 20.148438 24.523438 " fill-opacity="1" fill-rule="nonzero"/><path fill="#112c41" d="M 6.199219 34.824219 C 6.320312 34.859375 6.425781 34.921875 6.519531 35.015625 C 6.613281 35.105469 6.6875 35.21875 6.738281 35.355469 C 6.792969 35.492188 6.820312 35.640625 6.824219 35.800781 C 6.828125 35.960938 6.808594 36.121094 6.761719 36.28125 C 6.71875 36.4375 6.652344 36.585938 6.5625 36.71875 C 6.476562 36.855469 6.375 36.964844 6.257812 37.054688 C 6.140625 37.140625 6.019531 37.203125 5.890625 37.230469 C 5.761719 37.261719 5.640625 37.257812 5.519531 37.226562 C 5.398438 37.191406 5.292969 37.128906 5.199219 37.035156 C 5.105469 36.945312 5.035156 36.828125 4.980469 36.695312 C 4.929688 36.558594 4.898438 36.410156 4.894531 36.25 C 4.890625 36.089844 4.910156 35.929688 4.957031 35.769531 C 5.003906 35.613281 5.070312 35.464844 5.15625 35.332031 C 5.242188 35.195312 5.34375 35.085938 5.460938 34.996094 C 5.578125 34.90625 5.699219 34.847656 5.828125 34.820312 C 5.957031 34.789062 6.082031 34.792969 6.199219 34.824219 Z M 6.199219 34.824219 " fill-opacity="1" fill-rule="nonzero"/><path fill="#112c41" d="M 3.117188 33.878906 C 3.238281 33.914062 3.34375 33.976562 3.4375 34.070312 C 3.53125 34.160156 3.605469 34.273438 3.65625 34.410156 C 3.710938 34.546875 3.738281 34.695312 3.742188 34.855469 C 3.746094 35.015625 3.726562 35.175781 3.679688 35.335938 C 3.636719 35.492188 3.570312 35.640625 3.480469 35.773438 C 3.394531 35.910156 3.292969 36.019531 3.175781 36.109375 C 3.058594 36.195312 2.9375 36.257812 2.808594 36.285156 C 2.679688 36.316406 2.558594 36.3125 2.4375 36.28125 C 2.316406 36.246094 2.210938 36.183594 2.117188 36.089844 C 2.023438 36 1.953125 35.882812 1.898438 35.75 C 1.847656 35.613281 1.816406 35.464844 1.8125 35.304688 C 1.808594 35.144531 1.832031 34.984375 1.875 34.824219 C 1.921875 34.667969 1.988281 34.519531 2.074219 34.386719 C 2.160156 34.25 2.265625 34.140625 2.378906 34.050781 C 2.496094 33.960938 2.621094 33.902344 2.746094 33.875 C 2.875 33.84375 3 33.847656 3.117188 33.878906 Z M 3.117188 33.878906 " fill-opacity="1" fill-rule="nonzero"/><path fill="#112c41" d="M 12.089844 22.160156 C 12.296875 22.21875 12.480469 22.328125 12.640625 22.488281 C 12.800781 22.644531 12.929688 22.84375 13.019531 23.078125 C 13.109375 23.3125 13.160156 23.570312 13.167969 23.84375 C 13.171875 24.121094 13.136719 24.394531 13.058594 24.671875 C 12.980469 24.945312 12.867188 25.199219 12.714844 25.429688 C 12.566406 25.660156 12.390625 25.851562 12.1875 26.007812 C 11.988281 26.160156 11.777344 26.261719 11.554688 26.3125 C 11.335938 26.363281 11.121094 26.359375 10.914062 26.300781 C 10.707031 26.242188 10.523438 26.136719 10.363281 25.976562 C 10.203125 25.816406 10.078125 25.621094 9.984375 25.382812 C 9.894531 25.148438 9.847656 24.894531 9.839844 24.617188 C 9.832031 24.34375 9.867188 24.066406 9.945312 23.792969 C 10.023438 23.515625 10.136719 23.265625 10.289062 23.035156 C 10.4375 22.800781 10.617188 22.609375 10.816406 22.457031 C 11.019531 22.304688 11.230469 22.203125 11.449219 22.152344 C 11.667969 22.097656 11.882812 22.101562 12.089844 22.160156 Z M 12.089844 22.160156 " fill-opacity="1" fill-rule="nonzero"/><path fill="#badcee" d="M 27.109375 20.320312 C 28.484375 17.980469 30.769531 15.898438 33.8125 14.027344 C 33.992188 13.914062 34.183594 13.84375 34.394531 13.8125 C 34.601562 13.785156 34.804688 13.796875 35.007812 13.851562 C 35.210938 13.90625 35.394531 14 35.558594 14.132812 C 35.722656 14.261719 35.851562 14.421875 35.949219 14.609375 C 37.972656 18.558594 38.230469 22.601562 37.539062 26.703125 " fill-opacity="1" fill-rule="nonzero"/><path fill="#112c41" d="M 37.539062 26.9375 C 37.527344 26.9375 37.515625 26.9375 37.5 26.9375 C 37.34375 26.910156 37.28125 26.820312 37.308594 26.664062 C 38.066406 22.167969 37.554688 18.257812 35.738281 14.714844 C 35.574219 14.390625 35.3125 14.179688 34.960938 14.082031 C 34.597656 13.984375 34.257812 14.03125 33.9375 14.226562 C 30.851562 16.125 28.621094 18.214844 27.316406 20.441406 C 27.28125 20.5 27.234375 20.539062 27.171875 20.554688 C 27.105469 20.574219 27.046875 20.566406 26.988281 20.53125 C 26.929688 20.496094 26.894531 20.449219 26.878906 20.382812 C 26.863281 20.320312 26.871094 20.257812 26.90625 20.203125 C 28.253906 17.910156 30.53125 15.765625 33.6875 13.824219 C 34.125 13.554688 34.59375 13.492188 35.085938 13.628906 C 35.574219 13.761719 35.933594 14.050781 36.160156 14.5 C 38.023438 18.136719 38.550781 22.140625 37.773438 26.742188 C 37.75 26.875 37.671875 26.9375 37.539062 26.9375 Z M 37.539062 26.9375 " fill-opacity="1" fill-rule="nonzero"/><g clip-path="url(#9c6a3c6369)"><path fill="#badcee" d="M 25.6875 59.316406 C 25.6875 59.316406 27.109375 69.476562 32.5625 69.476562 C 37.777344 69.476562 39.4375 59.316406 39.4375 59.316406 " fill-opacity="1" fill-rule="nonzero"/><path fill="#112c41" d="M 32.5625 69.714844 C 30.230469 69.714844 28.257812 67.90625 26.863281 64.488281 C 26.203125 62.824219 25.734375 61.113281 25.453125 59.347656 C 25.433594 59.191406 25.5 59.105469 25.65625 59.082031 C 25.8125 59.0625 25.902344 59.128906 25.921875 59.285156 C 25.9375 59.382812 27.378906 69.242188 32.5625 69.242188 C 37.515625 69.242188 39.1875 59.378906 39.203125 59.277344 C 39.230469 59.121094 39.320312 59.058594 39.476562 59.082031 C 39.632812 59.109375 39.695312 59.199219 39.671875 59.355469 C 39.351562 61.117188 38.851562 62.828125 38.175781 64.488281 C 36.738281 67.90625 34.796875 69.714844 32.5625 69.714844 Z M 32.5625 69.714844 " fill-opacity="1" fill-rule="nonzero"/></g><path fill="#6ecfea" d="M 54.132812 57.1875 C 54.132812 57.1875 55.601562 65.925781 61.007812 65.222656 C 66.460938 64.515625 66.933594 51.042969 66.933594 51.042969 " fill-opacity="1" fill-rule="nonzero"/><path fill="#112c41" d="M 60.40625 65.5 C 58.359375 65.5 56.613281 64.15625 55.332031 61.574219 C 54.660156 60.1875 54.183594 58.742188 53.898438 57.226562 C 53.875 57.074219 53.9375 56.984375 54.09375 56.957031 C 54.25 56.929688 54.339844 56.996094 54.367188 57.148438 C 54.382812 57.234375 55.863281 65.65625 60.976562 64.988281 C 66.171875 64.316406 66.691406 51.167969 66.695312 51.035156 C 66.703125 50.878906 66.785156 50.804688 66.941406 50.808594 C 67.101562 50.8125 67.175781 50.894531 67.171875 51.054688 C 67.152344 51.609375 66.625 64.730469 61.039062 65.457031 C 60.828125 65.484375 60.617188 65.5 60.40625 65.5 Z M 60.40625 65.5 " fill-opacity="1" fill-rule="nonzero"/><path fill="#112c41" d="M 51.429688 13.285156 C 51.285156 13.242188 51.136719 13.199219 50.988281 13.160156 C 48.636719 12.511719 46.242188 12.113281 43.804688 11.96875 C 41.726562 11.84375 39.652344 11.894531 37.582031 12.125 L 35.695312 10.582031 C 37.84375 10.070312 40.023438 9.839844 42.234375 9.882812 C 45.292969 9.925781 48.296875 10.464844 50.359375 11.554688 L 51.273438 13.03125 Z M 51.429688 13.285156 " fill-opacity="1" fill-rule="nonzero"/><path fill="#112c41" d="M 51.960938 13.683594 L 51.367188 13.511719 C 51.222656 13.472656 51.074219 13.429688 50.929688 13.390625 C 48.589844 12.742188 46.210938 12.347656 43.789062 12.207031 C 41.726562 12.078125 39.664062 12.128906 37.609375 12.359375 L 37.507812 12.371094 L 35.179688 10.464844 L 35.636719 10.351562 C 37.808594 9.835938 40.007812 9.601562 42.238281 9.648438 C 45.566406 9.695312 48.488281 10.296875 50.46875 11.347656 L 50.527344 11.378906 Z M 41.601562 11.664062 C 42.34375 11.664062 43.082031 11.6875 43.816406 11.734375 C 46.222656 11.875 48.585938 12.261719 50.90625 12.894531 L 50.1875 11.734375 C 48.273438 10.738281 45.449219 10.164062 42.230469 10.121094 C 40.203125 10.082031 38.195312 10.277344 36.214844 10.699219 L 37.652344 11.878906 C 38.964844 11.738281 40.28125 11.664062 41.601562 11.664062 Z M 41.601562 11.664062 " fill-opacity="1" fill-rule="nonzero"/></svg>